<svg xmlns="http://www.w3.org/2000/svg" viewBox="0 0 1200 630">
  <defs>
    <linearGradient id="bg" x1="0" x2="1" y1="0" y2="1">
      <stop offset="0%" stop-color="#f9f4ee"/>
      <stop offset="100%" stop-color="#f1e6dc"/>
    </linearGradient>
    <linearGradient id="accent" x1="0" x2="1" y1="0" y2="1">
      <stop offset="0%" stop-color="#d7a077"/>
      <stop offset="100%" stop-color="#b56a44"/>
    </linearGradient>
  </defs>
  <rect width="1200" height="630" fill="url(#bg)"/>
  <circle cx="180" cy="120" r="140" fill="#ffffff" fill-opacity=".35"/>
  <circle cx="1030" cy="520" r="180" fill="#b56a44" fill-opacity=".08"/>
  <rect x="70" y="70" width="1060" height="490" rx="36" fill="#fffaf6" fill-opacity=".82" stroke="#d9c9bc"/>
  <rect x="115" y="120" width="82" height="82" rx="26" fill="url(#accent)"/>
  <path d="M136 170l16-16 14 12 22-22" fill="none" stroke="#fff9f4" stroke-linecap="round" stroke-linejoin="round" stroke-width="8"/>
  <path d="M132 191c10-4 21-6 33-6 11 0 20 1 26 4" fill="none" stroke="#fff9f4" stroke-linecap="round" stroke-width="6"/>
  <text x="235" y="168" fill="#2f241f" font-family="Fraunces, Georgia, serif" font-size="84" font-weight="700">SpyPrice</text>
  <text x="235" y="228" fill="#7a685e" font-family="Manrope, Arial, sans-serif" font-size="30">
    Monitor de precios, stock y alertas para proveedores
  </text>
  <rect x="120" y="305" width="290" height="170" rx="26" fill="#ffffff" stroke="#e5d7cc"/>
  <rect x="455" y="305" width="290" height="170" rx="26" fill="#ffffff" stroke="#e5d7cc"/>
  <rect x="790" y="305" width="290" height="170" rx="26" fill="#ffffff" stroke="#e5d7cc"/>
  <text x="150" y="355" fill="#7a685e" font-family="Manrope, Arial, sans-serif" font-size="24">Aumentos detectados</text>
  <text x="150" y="420" fill="#2f241f" font-family="Fraunces, Georgia, serif" font-size="68" font-weight="700">+12.4%</text>
  <text x="485" y="355" fill="#7a685e" font-family="Manrope, Arial, sans-serif" font-size="24">Stock bajo</text>
  <text x="485" y="420" fill="#2f241f" font-family="Fraunces, Georgia, serif" font-size="68" font-weight="700">8 items</text>
  <text x="820" y="355" fill="#7a685e" font-family="Manrope, Arial, sans-serif" font-size="24">Historial activo</text>
  <text x="820" y="420" fill="#2f241f" font-family="Fraunces, Georgia, serif" font-size="68" font-weight="700">100%</text>
</svg>
